<?xml version="1.0" encoding="utf-8"?>
<!-- Generator: Adobe Illustrator 18.1.0, SVG Export Plug-In . SVG Version: 6.00 Build 0)  -->
<svg version="1.1" id="Layer_1" xmlns="http://www.w3.org/2000/svg" xmlns:xlink="http://www.w3.org/1999/xlink" x="0px" y="0px"
	 viewBox="0 0 216 216" enable-background="new 0 0 216 216" xml:space="preserve">
<g>
	<path fill="#D39022" d="M111.9,119.6c-11.1,0-13.8-2.5-17.1-14.2l-20.2-71c-0.8-2.9-1.2-5.2-1.2-7.1c0-7.7,5.6-13.2,13-13.2
		c6.8,0,11.5,4,13.4,12.5l14.4,60l11.7-58.1c2.3-11.3,6.2-14.4,16.6-14.4c10.3,0,14.2,2.9,16.7,14.4l12.5,58.1L186.1,26
		c1.9-7.9,6.8-12.1,12.9-12.1c8,0,12.8,4.6,12.8,12.3c0,2.1-0.6,4.6-1.4,7.5l-20.4,71.8c-3.5,12.1-6.6,14.2-16.9,14.2
		c-10.5,0-14-2.7-16.7-14.2l-14-60.4L129,105.4C126.5,117.3,123.2,119.6,111.9,119.6z"/>
	<path fill="#5CCAE8" d="M159.1,37.2c-0.7-0.1-1.4-0.2-2.2-0.2h0H85h-8.8H61.4H39.3h-4.5h-15c-2.8,0-5.4,0.8-7.6,2c0,0,0,0,0,0
		c0,0,0,0,0,0c-1.1,0.6-2.1,1.4-3,2.3c0,0,0,0,0,0c0,0,0,0,0,0C6.6,44,5,47.5,5,51.4V59v109.5v0c0,7.2,5.5,13.1,12.7,14.1
		c0.7,0.1,1.4,0.2,2.2,0.2h0h117.7h4.5h15c2.8,0,5.4-0.8,7.6-2c0,0,0,0,0,0c0,0,0,0,0,0c1.1-0.6,2.1-1.4,3-2.3c0,0,0,0,0,0
		c0,0,0,0,0,0c2.6-2.6,4.1-6,4.1-9.9v-7.6V51.4v0C171.8,44.2,166.3,38.3,159.1,37.2z"/>
	<path fill="#9B4709" d="M128.8,184.1C128.7,184.1,128.7,184.2,128.8,184.1C128.7,184.2,128.7,184.1,128.8,184.1z"/>
	<path fill="#9B4709" d="M87.3,132.5c-0.1-0.3-0.1-0.7-0.1-1c0-1.1,0.7-1.7,1.7-1.7c1.1,0,1.6,0.8,1.8,1.9l1.4,8.9h0.1l1.4-8.2
		c0.3-1.8,0.7-2.7,1.8-2.7c0.7,0,1.3,0.3,1.5,1.5l1.8,9.4h0.1l1.4-9.1c0.2-1.2,0.8-1.8,1.8-1.8c0.9,0,1.5,0.6,1.5,1.6
		c0,0.2,0,0.5-0.1,0.9L101,143c-0.3,1.4-0.7,2-2.2,2c-1.6,0-2.1-0.8-2.4-2.4l-1.2-6h-0.1l-1.2,6.7c-0.2,1.1-0.9,1.8-2.2,1.8
		c-1.4,0-1.9-0.6-2.2-2.2L87.3,132.5z"/>
	<path fill="#9B4709" d="M108.6,135.6v-1.2c0-1.1,0.4-1.9,1.4-1.9c1.1,0,1.4,0.9,1.4,1.9v1.2H108.6z M105.1,139c0,3.7,0.5,6.1,5,6.1
		c2.7,0,4.5-1.6,4.5-4.2c0-1.3-0.7-1.6-1.7-1.6c-0.9,0-1.6,0.3-1.6,1.7c0,0.8-0.6,1.5-1.3,1.5c-1.4,0-1.5-1.4-1.5-3.1v-1.5h4.3
		c1.7,0,1.8-1,1.8-2.3c0-3.8-1.2-5.7-4.6-5.7c-4.5,0-5,2.4-5,6.1V139z"/>
	<path fill="#9B4709" d="M120.8,136.1c0-2.9,0.8-3.5,1.6-3.5c1.1,0,1.4,0.9,1.4,4.1v1.9c0,2.4-0.2,3.8-1.4,3.8
		c-1.3,0-1.7-1.5-1.7-3.5V136.1z M117.4,143.1c0,1.3,0.7,2,1.7,2c1,0,1.7-0.7,1.7-1.7h0.1c0.6,1.1,1.7,1.7,2.9,1.7
		c3,0,3.5-2.7,3.5-5.6v-3.9c0-3-0.5-5.6-3.5-5.6c-1.2,0-2.3,0.6-2.9,1.7h-0.1v-4.5c0-1.3-0.7-2-1.7-2c-1,0-1.7,0.6-1.7,2V143.1z"/>
	<path fill="#9B4709" d="M136.5,139.8c0,1.5-0.6,2.7-1.7,2.7c-0.7,0-1.2-0.6-1.2-1.7c0-1.2,0.3-1.7,1.7-2.7l1.2-0.8V139.8z
		 M139.8,134.2c0-2.4-0.5-4.3-4.9-4.3c-2.5,0-4.6,1.3-4.6,3.8c0,1,1,1.3,1.7,1.3c0.9,0,1.5-0.4,1.6-1c0.1-1.1,0.5-1.7,1.6-1.7
		c0.8,0,1.3,0.7,1.3,1.4c0,0.6-0.3,1.1-1.1,1.5l-3,1.5c-1.7,0.9-2.4,2.2-2.4,4.4c0,2.7,1.5,3.9,3.4,3.9c1.2,0,2.4-0.5,3-1.8l0.1,0
		c0,1.4,0.8,1.8,1.7,1.8c1.1,0,1.7-0.4,1.7-1.3c0-0.5-0.2-1.2-0.2-2.2V134.2z"/>
	<path fill="#9B4709" d="M142.2,132.5c-0.1-0.3-0.1-0.7-0.1-1c0-1.1,0.7-1.7,1.7-1.7c1.1,0,1.6,0.8,1.8,1.9l1.4,8.9h0.1l1.4-8.2
		c0.3-1.8,0.6-2.7,1.8-2.7c0.7,0,1.3,0.3,1.5,1.5l1.8,9.4h0.1l1.4-9.1c0.2-1.2,0.8-1.8,1.8-1.8c0.9,0,1.5,0.6,1.5,1.6
		c0,0.2,0,0.5-0.1,0.9l-2.2,10.6c-0.3,1.4-0.7,2-2.2,2c-1.6,0-2.1-0.8-2.4-2.4l-1.2-6h-0.1l-1.2,6.7c-0.2,1.1-0.9,1.8-2.2,1.8
		c-1.4,0-1.9-0.6-2.2-2.2L142.2,132.5z"/>
	<path fill="#9B4709" d="M169.4,141.6c0,0.9,0.2,1.7,0.2,2.2c0,0.9-0.6,1.3-1.7,1.3c-0.9,0-1.7-0.4-1.7-1.8l-0.1,0
		c-0.6,1.3-1.8,1.8-3,1.8c-1.9,0-3.4-1.1-3.4-3.9c0-2.2,0.6-3.4,2.4-4.4l3-1.5c0.7-0.4,1.1-0.9,1.1-1.5c0-0.8-0.4-1.4-1.3-1.4
		c-1.1,0-1.5,0.6-1.6,1.7c-0.1,0.6-0.7,1-1.6,1c-0.7,0-1.7-0.3-1.7-1.3c0-2.5,2.1-3.8,4.6-3.8c4.4,0,4.9,1.9,4.9,4.3V141.6z
		 M166.1,137.2l-1.2,0.8c-1.5,1-1.7,1.5-1.7,2.7c0,1.1,0.5,1.7,1.2,1.7c1.1,0,1.7-1.2,1.7-2.7V137.2z"/>
	<path fill="#D39022" d="M172.4,131.7c0-1.1,0.5-1.8,1.5-1.8c1.1,0,1.5,0.7,1.5,1.8v1.4h0.1c0.5-1.8,1.3-3.1,2.5-3.1
		c0.9,0,1.6,0.6,1.6,2.1c0,1-0.5,2-2.1,2c-1,0-1.9,0.7-1.9,2v7.2c0,1.3-0.6,2-1.7,2c-1,0-1.7-0.6-1.7-2V131.7z"/>
	<path fill="#D39022" d="M184.6,136.7c0-3.2,0.3-4.1,1.4-4.1c0.8,0,1.6,0.6,1.6,3.5v2.7c0,2.1-0.4,3.5-1.7,3.5
		c-1.2,0-1.4-1.4-1.4-3.8V136.7z M181.1,139.4c0,3,0.5,5.6,3.5,5.6c1.2,0,2.3-0.5,2.9-1.7h0.1c0,1,0.7,1.7,1.7,1.7
		c1,0,1.7-0.6,1.7-2v-16c0-1.3-0.7-2-1.7-2c-1,0-1.7,0.6-1.7,2v4.5h-0.1c-0.6-1.1-1.7-1.7-2.9-1.7c-3,0-3.5,2.7-3.5,5.6V139.4z"/>
	<path fill="#9B4709" d="M171.8,86.1l-0.1,0.5l-10.5-48.9c-0.7-0.2-1.4-0.4-2.1-0.4c-0.7-0.1-1.4-0.2-2.2-0.2h-32.8l-9.9,49.5
		l-11.9-49.5H75.3l19.5,68.3c3.3,11.7,6,14.2,17.1,14.2c11.3,0,14.6-2.3,17.1-14.2L142.2,45l14,60.4c2.6,11,6,14,15.5,14.2V86.1z"/>
	<text transform="matrix(1 0 0 1 83.3369 189.5527)"><tspan x="0" y="0" fill="#9B4709" font-family="'MyriadPro-Semibold'" font-size="58.9462" letter-spacing="-1">2</tspan><tspan x="30.4" y="0" fill="#9B4709" font-family="'MyriadPro-Semibold'" font-size="58.9462" letter-spacing="-7">01</tspan><tspan x="79.5" y="0" fill="#9B4709" font-family="'MyriadPro-Semibold'" font-size="58.9462" letter-spacing="-1">6</tspan></text>
</g>
</svg>
