<svg xmlns="http://www.w3.org/2000/svg" viewBox="0 0 216 216"><path fill="#D39022" d="M111.9 119.6c-11.1 0-13.8-2.5-17.1-14.2l-20.2-71c-.8-2.9-1.2-5.2-1.2-7.1 0-7.7 5.6-13.2 13-13.2 6.8 0 11.5 4 13.4 12.5l14.4 60 11.7-58.1c2.3-11.3 6.2-14.4 16.6-14.4 10.3 0 14.2 2.9 16.7 14.4l12.5 58.1L186.1 26c1.9-7.9 6.8-12.1 12.9-12.1 8 0 12.8 4.6 12.8 12.3 0 2.1-.6 4.6-1.4 7.5L190 105.5c-3.5 12.1-6.6 14.2-16.9 14.2-10.5 0-14-2.7-16.7-14.2l-14-60.4-13.4 60.3c-2.5 11.9-5.8 14.2-17.1 14.2z"/><path fill="#5CCAE8" d="M159.1 37.2c-.7-.1-1.4-.2-2.2-.2H19.8c-2.8 0-5.4.8-7.6 2-1.1.6-2.1 1.4-3 2.3C6.6 44 5 47.5 5 51.4v117.1c0 7.2 5.5 13.1 12.7 14.1.7.1 1.4.2 2.2.2h137.2c2.8 0 5.4-.8 7.6-2 1.1-.6 2.1-1.4 3-2.3 2.6-2.6 4.1-6 4.1-9.9V51.4c0-7.2-5.5-13.1-12.7-14.2z"/><path fill="#9B4709" d="M128.8 184.1c-.1 0-.1.1 0 0-.1.1-.1 0 0 0zm-41.5-51.6c-.1-.3-.1-.7-.1-1 0-1.1.7-1.7 1.7-1.7 1.1 0 1.6.8 1.8 1.9l1.4 8.9h.1l1.4-8.2c.3-1.8.7-2.7 1.8-2.7.7 0 1.3.3 1.5 1.5l1.8 9.4h.1l1.4-9.1c.2-1.2.8-1.8 1.8-1.8.9 0 1.5.6 1.5 1.6 0 .2 0 .5-.1.9L101 143c-.3 1.4-.7 2-2.2 2-1.6 0-2.1-.8-2.4-2.4l-1.2-6h-.1l-1.2 6.7c-.2 1.1-.9 1.8-2.2 1.8-1.4 0-1.9-.6-2.2-2.2l-2.2-10.4zm21.3 3.1v-1.2c0-1.1.4-1.9 1.4-1.9 1.1 0 1.4.9 1.4 1.9v1.2h-2.8zm-3.5 3.4c0 3.7.5 6.1 5 6.1 2.7 0 4.5-1.6 4.5-4.2 0-1.3-.7-1.6-1.7-1.6-.9 0-1.6.3-1.6 1.7 0 .8-.6 1.5-1.3 1.5-1.4 0-1.5-1.4-1.5-3.1v-1.5h4.3c1.7 0 1.8-1 1.8-2.3 0-3.8-1.2-5.7-4.6-5.7-4.5 0-5 2.4-5 6.1v3zm15.7-2.9c0-2.9.8-3.5 1.6-3.5 1.1 0 1.4.9 1.4 4.1v1.9c0 2.4-.2 3.8-1.4 3.8-1.3 0-1.7-1.5-1.7-3.5v-2.8zm-3.4 7c0 1.3.7 2 1.7 2s1.7-.7 1.7-1.7h.1c.6 1.1 1.7 1.7 2.9 1.7 3 0 3.5-2.7 3.5-5.6v-3.9c0-3-.5-5.6-3.5-5.6-1.2 0-2.3.6-2.9 1.7h-.1v-4.5c0-1.3-.7-2-1.7-2s-1.7.6-1.7 2v15.9zm19.1-3.3c0 1.5-.6 2.7-1.7 2.7-.7 0-1.2-.6-1.2-1.7 0-1.2.3-1.7 1.7-2.7l1.2-.8v2.5zm3.3-5.6c0-2.4-.5-4.3-4.9-4.3-2.5 0-4.6 1.3-4.6 3.8 0 1 1 1.3 1.7 1.3.9 0 1.5-.4 1.6-1 .1-1.1.5-1.7 1.6-1.7.8 0 1.3.7 1.3 1.4 0 .6-.3 1.1-1.1 1.5l-3 1.5c-1.7.9-2.4 2.2-2.4 4.4 0 2.7 1.5 3.9 3.4 3.9 1.2 0 2.4-.5 3-1.8h.1c0 1.4.8 1.8 1.7 1.8 1.1 0 1.7-.4 1.7-1.3 0-.5-.2-1.2-.2-2.2v-7.3zm2.4-1.7c-.1-.3-.1-.7-.1-1 0-1.1.7-1.7 1.7-1.7 1.1 0 1.6.8 1.8 1.9l1.4 8.9h.1l1.4-8.2c.3-1.8.6-2.7 1.8-2.7.7 0 1.3.3 1.5 1.5l1.8 9.4h.1l1.4-9.1c.2-1.2.8-1.8 1.8-1.8.9 0 1.5.6 1.5 1.6 0 .2 0 .5-.1.9l-2.2 10.6c-.3 1.4-.7 2-2.2 2-1.6 0-2.1-.8-2.4-2.4l-1.2-6h-.1l-1.2 6.7c-.2 1.1-.9 1.8-2.2 1.8-1.4 0-1.9-.6-2.2-2.2l-2.4-10.2zm27.2 9.1c0 .9.2 1.7.2 2.2 0 .9-.6 1.3-1.7 1.3-.9 0-1.7-.4-1.7-1.8h-.1c-.6 1.3-1.8 1.8-3 1.8-1.9 0-3.4-1.1-3.4-3.9 0-2.2.6-3.4 2.4-4.4l3-1.5c.7-.4 1.1-.9 1.1-1.5 0-.8-.4-1.4-1.3-1.4-1.1 0-1.5.6-1.6 1.7-.1.6-.7 1-1.6 1-.7 0-1.7-.3-1.7-1.3 0-2.5 2.1-3.8 4.6-3.8 4.4 0 4.9 1.9 4.9 4.3v7.3zm-3.3-4.4l-1.2.8c-1.5 1-1.7 1.5-1.7 2.7 0 1.1.5 1.7 1.2 1.7 1.1 0 1.7-1.2 1.7-2.7v-2.5z"/><path fill="#D39022" d="M172.4 131.7c0-1.1.5-1.8 1.5-1.8 1.1 0 1.5.7 1.5 1.8v1.4h.1c.5-1.8 1.3-3.1 2.5-3.1.9 0 1.6.6 1.6 2.1 0 1-.5 2-2.1 2-1 0-1.9.7-1.9 2v7.2c0 1.3-.6 2-1.7 2-1 0-1.7-.6-1.7-2v-11.6zm12.2 5c0-3.2.3-4.1 1.4-4.1.8 0 1.6.6 1.6 3.5v2.7c0 2.1-.4 3.5-1.7 3.5-1.2 0-1.4-1.4-1.4-3.8v-1.8zm-3.5 2.7c0 3 .5 5.6 3.5 5.6 1.2 0 2.3-.5 2.9-1.7h.1c0 1 .7 1.7 1.7 1.7s1.7-.6 1.7-2v-16c0-1.3-.7-2-1.7-2s-1.7.6-1.7 2v4.5h-.1c-.6-1.1-1.7-1.7-2.9-1.7-3 0-3.5 2.7-3.5 5.6v4z"/><path fill="#9B4709" d="M171.8 86.1l-.1.5-10.5-48.9c-.7-.2-1.4-.4-2.1-.4-.7-.1-1.4-.2-2.2-.2h-32.8l-9.9 49.5-11.9-49.5h-27l19.5 68.3c3.3 11.7 6 14.2 17.1 14.2 11.3 0 14.6-2.3 17.1-14.2L142.2 45l14 60.4c2.6 11 6 14 15.5 14.2V86.1z"/><text transform="translate(83.337 189.553)"><tspan x="0" y="0" fill="#9B4709" font-family="'MyriadPro-Semibold'" font-size="58.946" letter-spacing="-1">2</tspan><tspan x="30.4" y="0" fill="#9B4709" font-family="'MyriadPro-Semibold'" font-size="58.946" letter-spacing="-7">01</tspan><tspan x="79.5" y="0" fill="#9B4709" font-family="'MyriadPro-Semibold'" font-size="58.946" letter-spacing="-1">6</tspan></text></svg>