<svg xmlns="http://www.w3.org/2000/svg" width="389.727" height="223.152" version="1"><g transform="translate(-73.262 -198.577)"><path d="M83.898 205.252h111.247v209.314H83.898z"/><path d="M122.387 245.323l7.381-8.964c50.67 7.777 47.458 20.512 11.072 26.89 12.193 4.287 55.408 12.233 3.163 27.943 8.503 2.31 56.447 14.178-3.163 24.78 9.445 4.265 59.556 10.382 2.109 25.835 14.875 2.445 53.1 10.592 2.636 26.89 19.078 1.995 21.236 2.657 26.362 11.599l.527 35.852-91.212 1.581 1.582-54.832 2.109.527c96.646-8.92 68.28-12.142-2.11-16.344l.528-10.545c127.016-7.528 32.923-11.43.527-16.345v-8.435c23.742-4.67 132.113-6.565 0-16.345v-10.545c74.457-4.004 99.453-9.195-1.054-17.398l-.527-9.49c80.726-2.67 81.384-7.18 40.07-12.654z" fill="#fff" fill-rule="evenodd"/><path d="M209.908 259.558h29.525v3.163h-29.525z"/><path d="M221.947 261.238h3.45v35.51h-3.45zm22.726-2.029h3.247v37.742h-3.247z"/><path d="M246.905 276.862h27.19v2.638h-27.19z"/><path d="M271.254 259.412h2.841v38.147h-2.841zm12.63-.162h25.061v3.163h-25.061zm-.608 17.248h25.061v3.163h-25.061zm1.826 17.653h25.061v3.163h-25.061z"/><path d="M283.429 259.412h2.841v38.147h-2.841z"/><path d="M214.655 411.433l17.136-35.608 17.014 35.244v-.122l-17.014-34.758-17.136 35.244z" fill="none" stroke="#000" stroke-width="2.245"/><path d="M219.273 400.13l23.577.487-23.577-.486zm31.841-25.034l13.612 35.365 11.667-34.758 12.031 34.515 12.64-35.122-12.518 35.243-12.275-34.757-11.667 35-13.49-35.486zm53.172 36.276l17.136-35.608 17.014 35.244v-.122l-17.014-34.757-17.136 35.243zm4.619-11.302l23.576.486-23.576-.486zm37.003 11.485l-.243-36.46.243 36.46zm-.486-36.095h19.323c9.071 2.493 10.02 16.97-2.309 20.053l-16.285.243 16.285-.122c14.778-2.652 8.574-20.342 2.188-20.295l-19.202.121zm15.556 20.66l11.91 15.192m9.844-35.609v35.609c14.257-.916 31.585 1.978 30.382-18.108-2.92-20.925-17.545-17.341-30.382-17.5zm60.158 2.552c-3.155-4.945-20.72-7.265-21.026 7.414-.248 6.055 23.526 7.038 23.699 16.406-4.366 14.138-20.716 7.79-24.55 3.282 5.238 6.85 23.847 8.35 24.671-3.282-2.804-12.05-23.681-7.794-24.063-16.528.054-14.192 14.938-12.4 21.268-7.292z" fill="none" stroke="#000" stroke-width="2.245"/><path d="M215.382 315.115h12.151l10.694 44.716h-12.151zm49.812-.487h12.151l-12.637 44.717h-12.15z"/><path d="M241.584 314.396h9.824l8.646 44.717h-9.824z"/><path d="M240.158 314.78h9.824l-8.852 44.715h-9.824z"/><rect width="36.454" height="23.816" x="327.879" y="314.628" ry="11.908"/><rect width="22.358" height="10.693" x="329.968" y="322.405" ry="5.347" fill="#fff"/><rect width="36.454" height="24.789" x="328.608" y="335.286" ry="12.394"/><rect width="22.358" height="10.693" x="332.253" y="340.519" ry="5.347" fill="#fff"/><path d="M327.393 315.115h11.179v44.717h-11.179z"/><rect width="36.454" height="23.816" x="372.421" y="315.022" ry="11.908"/><rect width="22.358" height="10.693" x="374.51" y="322.799" ry="5.347" fill="#fff"/><rect width="36.454" height="24.789" x="373.15" y="335.679" ry="12.394"/><rect width="22.358" height="10.693" x="376.795" y="340.912" ry="5.347" fill="#fff"/><path d="M371.935 315.508h11.179v44.717h-11.179zm37.045-.88h11.217l16.002 23.817h-11.217z"/><path d="M441.128 315.358h11.217l-16.077 23.816H425.05z"/><path d="M426.061 337.473h10.207v21.872h-10.207zm-103.529-1.701a22.601 23.573 0 1 1-45.202 0 22.601 23.573 0 1 1 45.202 0z"/><path fill="#fff" d="M289.967 335.529h34.509v8.749h-34.509z"/><path d="M312.487 335.772a12.556 12.812 0 1 1-25.112 0 12.556 12.812 0 1 1 25.112 0z" fill="#fff"/><path d="M280.343 331.159h42.189v6.662h-42.189z"/></g></svg>